<?xml version="1.0" standalone="no"?>
<!DOCTYPE svg PUBLIC "-//W3C//DTD SVG 20010904//EN"
 "http://www.w3.org/TR/2001/REC-SVG-20010904/DTD/svg10.dtd">
<svg version="1.0" xmlns="http://www.w3.org/2000/svg"
 width="631.000000pt" height="631.000000pt" viewBox="0 0 631.000000 631.000000"
 preserveAspectRatio="xMidYMid meet">

<g transform="translate(0.000000,631.000000) scale(0.100000,-0.100000)"
fill="#000000" stroke="none">
<path d="M140 6179 c-11 -8 -12 -12 -2 -16 16 -6 18 -1553 2 -1553 -7 0 -10
-762 -10 -2265 l0 -2265 3065 0 3065 0 0 2265 c0 1503 -3 2265 -10 2265 -16 0
-14 1547 3 1553 60 25 -150 27 -3058 27 -2127 0 -3045 -3 -3055 -11z m2722
-1313 c232 -59 367 -95 403 -107 17 -5 116 -32 220 -59 196 -51 274 -72 360
-96 28 -8 75 -21 105 -30 106 -30 156 -43 215 -59 33 -9 83 -22 110 -30 28 -8
84 -23 125 -35 41 -11 89 -24 105 -29 120 -35 193 -56 345 -96 36 -10 85 -23
110 -30 25 -8 72 -21 105 -29 33 -9 101 -27 150 -40 50 -13 116 -29 147 -36
58 -12 84 -30 75 -53 -4 -10 -35 -16 -102 -21 -116 -9 -250 -49 -338 -103 -76
-46 -186 -150 -238 -224 -22 -31 -55 -64 -73 -74 -39 -21 -30 -23 -361 70
-365 102 -358 101 -411 87 -25 -7 -83 -38 -128 -70 -44 -32 -110 -76 -145 -97
-88 -55 -135 -54 -346 4 -88 24 -198 54 -245 67 -47 12 -119 31 -160 42 -76
20 -658 181 -760 209 -30 9 -75 19 -100 22 -64 10 -85 24 -110 77 -21 43 -22
52 -12 132 14 123 26 164 79 272 40 80 61 109 137 185 147 146 256 194 448
194 107 1 133 -3 290 -43z m2671 -795 c45 -17 97 -71 97 -100 0 -65 -101 -213
-258 -380 l-70 -74 -68 7 c-146 14 -154 16 -193 55 -30 30 -40 50 -51 102 -7
35 -21 86 -32 112 -18 48 -18 48 4 99 14 33 35 60 61 79 42 31 194 84 280 98
72 12 201 13 230 2z m-3538 -60 c66 -21 172 -53 235 -70 63 -16 192 -51 285
-76 252 -67 481 -131 650 -181 340 -100 442 -99 588 6 184 132 164 123 243
118 79 -5 147 -33 152 -61 2 -11 -5 -29 -16 -40 -35 -40 -118 -272 -154 -432
-29 -131 -36 -373 -13 -485 20 -99 40 -164 61 -203 18 -33 12 -57 -14 -57 -10
0 -126 29 -258 66 -131 36 -286 78 -344 94 -58 15 -244 66 -415 113 -282 77
-403 110 -625 168 -41 11 -118 32 -170 46 -52 14 -108 29 -125 33 -58 14 -150
61 -183 93 -137 130 -172 484 -82 811 20 70 34 96 54 96 6 0 65 -17 131 -39z
m2924 -205 c8 -10 10 -30 6 -58 -3 -24 -8 -133 -9 -243 -3 -159 -8 -219 -25
-295 -59 -261 -166 -466 -331 -632 -123 -124 -200 -149 -332 -108 -124 38
-175 131 -208 375 -31 221 34 555 157 812 36 75 40 78 75 81 44 4 111 -26 116
-51 2 -10 -7 -35 -21 -55 -61 -91 -140 -333 -164 -506 -14 -101 -15 -135 -5
-238 7 -65 18 -134 26 -152 19 -45 57 -72 112 -81 73 -11 125 21 204 127 155
205 229 431 235 714 2 134 4 143 34 206 30 64 79 118 106 118 7 0 18 -6 24
-14z m-273 -173 c34 -17 39 -25 42 -59 5 -52 -25 -278 -50 -379 -25 -101 -88
-220 -157 -296 -67 -74 -104 -96 -137 -79 -31 17 -64 98 -64 157 0 56 34 262
51 313 6 19 18 55 27 80 35 106 110 257 136 276 27 20 101 14 152 -13z m-3304
-725 l23 -23 -5 -733 c-5 -712 -6 -734 -24 -748 -16 -11 -64 -14 -230 -14
-202 0 -211 1 -233 22 l-23 21 0 724 0 724 25 24 c24 25 24 25 234 25 204 0
211 -1 233 -22z m1235 -53 c295 -81 295 -81 312 -114 9 -17 -24 -160 -99 -422
-18 -64 -39 -59 -102 23 -31 40 -113 96 -178 122 -60 23 -209 33 -249 17 -42
-18 -71 -6 -71 29 0 25 52 237 82 330 15 51 36 70 74 70 19 0 123 -25 231 -55z
m-119 -440 c77 -18 104 -32 167 -84 166 -137 204 -405 86 -590 -107 -166 -299
-244 -484 -196 -144 37 -266 134 -307 242 -45 117 -45 305 0 393 51 101 139
181 247 226 70 28 192 32 291 9z m-646 -246 c18 -10 19 -17 14 -72 -4 -35 0
-123 8 -200 15 -143 14 -162 -10 -171 -7 -3 -91 -6 -186 -6 -224 -2 -208 -19
-208 222 l0 180 29 29 29 29 152 0 c90 0 160 -4 172 -11z"/>
<path d="M4508 3433 c-56 -67 -91 -172 -92 -276 0 -123 32 -130 87 -20 19 37
40 95 47 128 6 33 16 80 21 103 5 24 7 52 4 63 -8 24 -47 25 -67 2z"/>
<path d="M2265 2111 c-55 -34 -69 -57 -73 -125 -4 -58 -2 -66 25 -96 53 -59
166 -60 216 0 59 70 41 187 -34 226 -39 19 -98 18 -134 -5z"/>
</g>
</svg>
